<svg width="35" height="28" xmlns="http://www.w3.org/2000/svg"><path d="M33.275 19.952h-1.262V4.08A4.063 4.063 0 0027.955.023H6.673A4.063 4.063 0 002.615 4.08v15.872H1.353c-.747 0-1.353.605-1.353 1.352a6.68 6.68 0 006.673 6.673h21.282a6.68 6.68 0 006.673-6.673c0-.747-.606-1.352-1.353-1.352zM5.32 4.08c0-.745.607-1.352 1.353-1.352h21.282c.746 0 1.353.607 1.353 1.352v15.872h-5.459a6.69 6.69 0 00-2.873-4.224c2.933-3.18.659-8.356-3.662-8.356-4.326 0-6.593 5.178-3.662 8.356a6.69 6.69 0 00-2.873 4.224H5.32V4.08zm9.717 8.274a2.28 2.28 0 012.277-2.277 2.28 2.28 0 012.277 2.277 2.28 2.28 0 01-2.277 2.277 2.28 2.28 0 01-2.277-2.277zm2.277 4.983a3.974 3.974 0 013.73 2.615h-7.46a3.974 3.974 0 013.73-2.615zm10.64 7.935H6.675a3.974 3.974 0 01-3.731-2.615h28.742a3.975 3.975 0 01-3.73 2.615z" fill="#510C76"/></svg>