<svg width="31" height="31" xmlns="http://www.w3.org/2000/svg"><path d="M27.367 4.763h-1.13V1.211A1.21 1.21 0 0025.026 0H5.974a1.21 1.21 0 00-1.211 1.21v3.553h-1.13A3.637 3.637 0 000 8.396v14.208a3.637 3.637 0 003.633 3.633h10.656v2.341h-3.552a1.21 1.21 0 100 2.422h9.526a1.21 1.21 0 100-2.422h-3.552v-2.341h10.656A3.637 3.637 0 0031 22.604V8.396a3.637 3.637 0 00-3.633-3.633zm0 2.422c.668 0 1.211.543 1.211 1.21v10.657h-2.341V7.185h1.13zM7.185 2.422h16.63v16.63H7.185V2.422zM3.633 7.185h1.13v11.867H2.422V8.396c0-.668.543-1.211 1.21-1.211zm23.734 16.63H3.633a1.212 1.212 0 01-1.211-1.21v-1.131h26.156v1.13c0 .668-.543 1.211-1.21 1.211zM9.526 8.355c0-.668.542-1.21 1.211-1.21h9.526a1.21 1.21 0 110 2.421h-9.526a1.21 1.21 0 01-1.211-1.21zm0 5.934c0-.669.542-1.21 1.211-1.21h9.526a1.21 1.21 0 110 2.421h-9.526a1.21 1.21 0 01-1.211-1.21z" fill="#510C76"/></svg>