<svg width="31" height="31" xmlns="http://www.w3.org/2000/svg"><path d="M29.732 13.134c.667 0 1.208-.541 1.208-1.209V8.38c0-.457-.257-.875-.666-1.08L16.014.13a1.209 1.209 0 00-1.087 0L.667 7.3A1.209 1.209 0 000 8.38v3.545c0 .668.54 1.209 1.208 1.209h1.128v10.639a1.208 1.208 0 00-1.09.907l-1.21 4.754A1.21 1.21 0 001.21 30.94h28.523a1.21 1.21 0 001.17-1.506l-1.208-4.754a1.208 1.208 0 00-1.13-.91V13.135h1.168zM2.418 9.125L15.47 2.562l13.053 6.563v1.592H2.418V9.125zm8.299 14.644V13.134h9.467v10.635h-9.467zM8.299 13.134v10.635H4.754V13.134H8.3zM2.763 28.523l.594-2.337h24.226l.594 2.337H2.763zm23.383-4.754h-3.545V13.134h3.545v10.635z" fill="#510C76"/></svg>